P3
128 1
255
253 254 253 
253 254 253 253 254 253 253 254 253 253 254 253 253 254 253 253 254 253 
253 254 253 253 254 253 253 254 253 253 254 253 253 254 253 253 254 253 
253 254 253 253 254 253 253 254 253 253 254 253 253 253 253 253 253 253 
253 253 253 253 253 253 253 253 253 253 253 253 253 253 253 253 253 253 
253 253 253 253 253 253 253 253 253 251 253 253 252 251 249 253 251 249 
252 252 251 250 254 254 251 254 254 253 254 254 253 254 254 253 254 254 
253 254 254 253 254 254 254 252 253 253 251 249 252 253 250 251 253 253 
253 252 253 254 253 254 254 254 254 254 254 254 254 254 254 253 254 254 
252 254 254 252 254 254 253 254 254 254 254 254 254 253 252 254 254 253 
254 254 253 254 254 254 254 254 254 254 254 254 254 254 254 254 254 254 
254 254 254 254 254 254 254 254 254 250 251 250 254 254 254 254 254 254 
253 252 254 253 250 254 254 253 254 254 254 254 253 254 253 254 254 254 
254 254 254 254 254 254 254 254 254 254 254 254 254 254 254 254 254 254 
254 254 254 254 254 254 254 254 254 254 254 254 254 254 254 254 254 254 
254 254 254 254 254 254 254 254 254 254 254 254 254 254 254 254 254 254 
254 254 254 254 254 254 254 254 254 254 254 254 254 254 254 254 254 254 
254 254 254 254 254 254 254 254 254 254 254 254 254 254 254 254 254 254 
254 254 254 254 254 254 254 254 254 254 254 254 254 254 254 254 254 254 
254 254 254 254 254 254 254 254 254 254 254 254 254 254 254 254 254 254 
254 254 254 254 254 254 254 254 254 254 254 254 254 254 254 254 254 254 
254 254 254 254 254 254 254 254 254 254 254 254 254 254 254 254 254 254 
127 127 127 