P3
128 1
255
254 255 255 252 254 253 252 254 253 253 255 254 252 254 253 253 255 254 
254 255 255 253 255 254 253 255 254 253 255 254 253 255 254 253 255 254 
253 255 254 253 255 254 253 255 254 254 254 255 255 253 255 255 253 255 
255 254 252 253 255 250 253 255 250 251 255 252 251 255 255 251 255 255 
255 254 255 251 251 251 255 254 249 255 255 248 253 254 249 251 251 251 
251 252 255 250 250 255 254 254 255 251 252 255 255 254 255 253 253 255 
255 255 251 251 252 246 254 255 253 249 253 252 247 250 255 249 254 255 
250 255 255 248 254 250 250 252 247 254 255 253 253 251 255 255 252 255 
252 252 254 252 252 252 253 253 253 253 253 253 254 254 254 254 254 254 
253 253 253 253 253 253 254 254 254 254 254 254 254 254 255 254 254 255 
254 254 255 254 254 255 254 254 255 254 254 255 253 251 252 253 251 252 
253 251 252 254 252 253 254 252 253 255 253 254 255 253 254 255 253 254 
255 254 255 255 254 255 255 254 255 255 254 255 255 254 255 255 254 255 
255 254 255 255 255 255 254 254 252 253 255 252 254 254 255 255 255 255 
255 253 255 255 253 255 255 254 255 255 255 255 255 255 255 254 255 253 
252 255 253 251 255 252 253 255 254 254 255 255 255 255 255 254 255 255 
251 255 255 251 255 255 254 255 255 253 255 252 255 255 253 255 255 251 
254 253 249 255 254 250 255 255 255 249 251 250 251 252 254 252 255 255 
249 253 254 252 255 255 253 254 255 254 255 255 255 254 255 255 255 253 
255 254 255 255 254 255 255 254 255 255 253 255 255 254 255 255 254 255 
255 254 255 255 254 255 255 255 255 254 254 255 255 255 255 254 254 255 
255 255 255 127 127 127 
