P3
128 1
255
253 254 253 
253 254 253 253 254 253 253 254 253 253 254 253 253 254 253 253 254 253 
253 254 253 253 254 253 253 254 253 253 254 253 253 254 253 253 254 253 
253 254 253 253 254 253 253 254 253 253 254 253 253 253 253 253 253 253 
253 253 253 253 253 253 253 253 253 253 253 253 253 253 253 253 253 253 
253 253 253 253 253 253 253 253 253 251 253 253 252 251 249 253 251 249 
252 252 251 250 254 254 251 254 254 253 254 254 253 254 254 253 254 254 
253 254 254 253 254 254 254 252 253 253 251 249 252 253 250 251 253 253 
253 252 253 254 253 254 254 254 254 254 254 254 254 254 254 253 254 254 
252 254 254 252 254 254 253 254 254 254 254 254 254 253 252 254 254 253 
254 254 253 254 254 254 254 254 254 254 254 254 254 254 254 254 254 254 
254 254 254 254 254 254 254 254 254 250 251 250 254 254 254 254 254 254 
253 252 254 253 250 254 254 253 254 254 254 254 253 254 253 254 254 254 
254 254 254 254 254 254 254 254 254 254 254 254 254 254 254 251 251 251 
249 249 249 246 246 246 244 244 244 241 241 241 239 239 239 236 236 236 
234 234 234 231 231 231 229 229 229 226 226 226 223 223 223 221 221 221 
218 218 218 216 216 216 213 213 213 211 211 211 208 208 208 206 206 206 
203 203 203 200 200 200 198 198 198 195 195 195 193 193 193 190 190 190 
188 188 188 185 185 185 183 183 183 180 180 180 178 178 178 175 175 175 
172 172 172 170 170 170 167 167 167 165 165 165 162 162 162 160 160 160 
157 157 157 155 155 155 152 152 152 149 149 149 147 147 147 144 144 144 
142 142 142 139 139 139 137 137 137 134 134 134 132 132 132 129 129 129 
127 127 127 