P3
128 1
255
227 227 227 
227 227 227 227 227 227 227 227 227 227 227 227 227 227 227 227 227 227 
227 227 227 227 227 227 227 227 227 227 227 227 227 227 227 227 227 227 
227 227 227 227 227 227 227 227 227 227 227 227 227 227 227 227 227 227 
227 227 227 227 227 227 227 227 227 227 227 227 227 227 227 227 227 227 
227 227 227 227 227 227 227 227 227 225 227 227 226 225 223 227 225 223 
226 225 224 224 227 227 225 227 227 227 227 227 227 227 227 227 227 227 
227 227 227 227 227 227 227 225 226 226 224 222 225 226 223 224 226 226 
226 225 226 227 226 227 227 227 227 227 227 227 227 227 227 226 227 227 
225 227 227 225 227 227 226 227 227 227 227 227 227 226 225 227 227 226 
227 227 226 227 227 227 227 227 227 227 227 227 227 227 227 227 227 227 
227 227 227 227 227 227 227 227 227 223 224 223 227 227 227 227 227 227 
226 225 227 226 223 227 227 226 227 227 227 227 226 227 226 227 227 227 
227 227 227 227 227 227 227 227 227 227 227 227 227 227 227 225 225 225 
223 223 223 221 221 221 219 219 219 217 217 217 215 215 215 213 213 213 
211 211 211 209 209 209 207 207 207 205 205 205 203 203 203 201 201 201 
199 199 199 197 197 197 195 195 195 193 193 193 191 191 191 189 189 189 
187 187 187 185 185 185 183 183 183 181 181 181 179 179 179 177 177 177 
175 175 175 173 173 173 171 171 171 169 169 169 167 167 167 165 165 165 
163 163 163 161 161 161 159 159 159 157 157 157 155 155 155 153 153 153 
151 151 151 149 149 149 147 147 147 145 145 145 143 143 143 141 141 141 
139 139 139 137 137 137 135 135 135 133 133 133 131 131 131 129 129 129 
127 127 127 